<svg width="154" height="60" viewBox="0 0 154 70" fill="none" xmlns="http://www.w3.org/2000/svg">
<path d="M61.182 44H56.694V29.172H61.094C63.2793 29.172 65.0687 29.854 66.462 31.218C67.87 32.5673 68.574 34.32 68.574 36.476C68.574 38.6173 67.9213 40.4067 66.616 41.844C65.3253 43.2813 63.514 44 61.182 44ZM61.072 30.756H58.498V42.438H61.16C62.9933 42.438 64.3793 41.8733 65.318 40.744C66.2567 39.6 66.726 38.1773 66.726 36.476C66.726 34.8627 66.198 33.506 65.142 32.406C64.1007 31.306 62.744 30.756 61.072 30.756ZM79.2909 43.428C78.4256 43.8827 77.3696 44.11 76.1229 44.11C74.4363 44.11 73.0723 43.5967 72.0309 42.57C71.0043 41.5287 70.4909 40.1573 70.4909 38.456C70.4909 36.6813 70.9529 35.2807 71.8769 34.254C72.8009 33.2273 73.9889 32.714 75.4409 32.714C76.8343 32.714 77.9416 33.1613 78.7629 34.056C79.5843 34.9507 79.9949 36.2193 79.9949 37.862C79.9949 38.3313 79.9583 38.764 79.8849 39.16H72.2729C72.4049 40.26 72.8229 41.1033 73.5269 41.69C74.2309 42.2767 75.1549 42.57 76.2989 42.57C77.5456 42.57 78.5429 42.3133 79.2909 41.8V43.428ZM75.4409 34.232C74.6049 34.232 73.8936 34.5327 73.3069 35.134C72.7203 35.7353 72.3756 36.5933 72.2729 37.708H78.2569V37.268C78.2569 36.344 78.0076 35.6107 77.5089 35.068C77.0103 34.5107 76.3209 34.232 75.4409 34.232ZM84.4711 44H82.7331V28.446H84.4711V44ZM92.6198 43.714C92.0478 45.2247 91.3658 46.288 90.5738 46.904C89.7965 47.52 88.9018 47.828 87.8898 47.828C87.5085 47.828 87.2005 47.7913 86.9658 47.718V46.156C87.1858 46.2147 87.4352 46.244 87.7138 46.244C89.1952 46.244 90.2438 45.4007 90.8598 43.714L86.3498 32.846H88.3078L89.7598 36.52L91.7178 41.58C91.8352 41.1987 92.4218 39.512 93.4778 36.52L94.7758 32.846H96.6458L92.6198 43.714ZM109.343 43.252C108.434 43.868 107.187 44.176 105.603 44.176C103.374 44.176 101.563 43.494 100.169 42.13C98.7761 40.7513 98.0794 38.8813 98.0794 36.52C98.0794 34.2907 98.7834 32.4793 100.191 31.086C101.614 29.678 103.396 28.974 105.537 28.974C107.077 28.974 108.331 29.238 109.299 29.766V31.592C108.654 31.2547 108.075 31.0127 107.561 30.866C107.048 30.7193 106.373 30.646 105.537 30.646C103.939 30.646 102.604 31.1887 101.533 32.274C100.477 33.3593 99.9494 34.7747 99.9494 36.52C99.9494 38.3387 100.477 39.7907 101.533 40.876C102.589 41.9613 103.99 42.504 105.735 42.504C107.143 42.504 108.346 42.13 109.343 41.382V43.252ZM121.676 38.456C121.676 40.1133 121.206 41.4847 120.268 42.57C119.329 43.6553 118.038 44.198 116.396 44.198C114.797 44.198 113.528 43.6627 112.59 42.592C111.666 41.5067 111.204 40.1427 111.204 38.5C111.204 36.8427 111.68 35.464 112.634 34.364C113.602 33.2493 114.856 32.692 116.396 32.692C118.082 32.692 119.38 33.2347 120.29 34.32C121.214 35.4053 121.676 36.784 121.676 38.456ZM113.008 38.478C113.008 39.6367 113.316 40.6267 113.932 41.448C114.548 42.2547 115.369 42.658 116.396 42.658C117.51 42.658 118.368 42.262 118.97 41.47C119.571 40.6633 119.872 39.666 119.872 38.478C119.872 37.246 119.586 36.234 119.014 35.442C118.442 34.6353 117.569 34.232 116.396 34.232C115.34 34.232 114.511 34.6427 113.91 35.464C113.308 36.2853 113.008 37.29 113.008 38.478ZM139.133 44H137.395V36.784C137.395 35.0973 136.684 34.254 135.261 34.254C134.557 34.254 133.927 34.5767 133.369 35.222C132.812 35.8527 132.533 36.7473 132.533 37.906V44H130.795V36.784C130.795 35.0973 130.084 34.254 128.661 34.254C127.957 34.254 127.327 34.5767 126.769 35.222C126.212 35.8527 125.933 36.7473 125.933 37.906V44H124.217V32.846H125.933V34.65C126.549 33.3447 127.598 32.692 129.079 32.692C130.795 32.692 131.881 33.418 132.335 34.87C132.658 34.166 133.105 33.6307 133.677 33.264C134.264 32.8827 134.917 32.692 135.635 32.692C136.794 32.692 137.667 33.022 138.253 33.682C138.84 34.342 139.133 35.2293 139.133 36.344V44Z" fill="#0D0D0D"/>
<path d="M28.5 40L35.8612 54.25H21.1388L28.5 40Z" fill="#EFB84B"/>
<path d="M30.7825 38.7825L46.0639 43.6536L35.6536 54.0639L30.7825 38.7825Z" fill="#EFB84B"/>
<path d="M32 36.5L46.25 29.1388V43.8612L32 36.5Z" fill="#EFB84B"/>
<path d="M25 36.5L10.75 43.8612L10.75 29.1388L25 36.5Z" fill="#EFB84B"/>
<path d="M28.5 33L21.1388 18.75H35.8612L28.5 33Z" fill="#EFB84B"/>
<path d="M26.2176 34.2175L10.9361 29.3464L21.3465 18.9361L26.2176 34.2175Z" fill="#EFB84B"/>
<path d="M30.7825 34.2175L35.6536 18.9361L46.0639 29.3464L30.7825 34.2175Z" fill="#EFB84B"/>
<path d="M26.2175 38.7825L21.3464 54.0639L10.9361 43.6536L26.2175 38.7825Z" fill="#EFB84B"/>
</svg>
